
            <svg id="trend-chart" width="660" height="400" title="Stack Overflow Trends Chart" version="1.1" xmlns="http://www.w3.org/2000/svg"><g></g><g class="chart-area" transform="translate(100, 20)"><g transform="translate(0,300)" fill="none" font-size="10" font-family="sans-serif" text-anchor="middle"><path class="domain" stroke="#000" d="M0.5,6V0.5H410.5V6"></path><g class="tick" opacity="1" transform="translate(14.718030959389028,0)"><line stroke="#000" y2="6" x1="0.5" x2="0.5"></line><text fill="#000" y="9" x="0.5" dy="0.71em" style="font-size: 12px;">2009</text></g><g class="tick" opacity="1" transform="translate(49.83923804308499,0)"><line stroke="#000" y2="6" x1="0.5" x2="0.5"></line><text fill="#000" y="9" x="0.5" dy="0.71em" style="font-size: 12px;">2010</text></g><g class="tick" opacity="1" transform="translate(84.96044512678094,0)"><line stroke="#000" y2="6" x1="0.5" x2="0.5"></line><text fill="#000" y="9" x="0.5" dy="0.71em" style="font-size: 12px;">2011</text></g><g class="tick" opacity="1" transform="translate(120.08165221047692,0)"><line stroke="#000" y2="6" x1="0.5" x2="0.5"></line><text fill="#000" y="9" x="0.5" dy="0.71em" style="font-size: 12px;">2012</text></g><g class="tick" opacity="1" transform="translate(155.29908177933368,0)"><line stroke="#000" y2="6" x1="0.5" x2="0.5"></line><text fill="#000" y="9" x="0.5" dy="0.71em" style="font-size: 12px;">2013</text></g><g class="tick" opacity="1" transform="translate(190.42028886302964,0)"><line stroke="#000" y2="6" x1="0.5" x2="0.5"></line><text fill="#000" y="9" x="0.5" dy="0.71em" style="font-size: 12px;">2014</text></g><g class="tick" opacity="1" transform="translate(225.54149594672563,0)"><line stroke="#000" y2="6" x1="0.5" x2="0.5"></line><text fill="#000" y="9" x="0.5" dy="0.71em" style="font-size: 12px;">2015</text></g><g class="tick" opacity="1" transform="translate(260.6627030304216,0)"><line stroke="#000" y2="6" x1="0.5" x2="0.5"></line><text fill="#000" y="9" x="0.5" dy="0.71em" style="font-size: 12px;">2016</text></g><g class="tick" opacity="1" transform="translate(295.88013259927834,0)"><line stroke="#000" y2="6" x1="0.5" x2="0.5"></line><text fill="#000" y="9" x="0.5" dy="0.71em" style="font-size: 12px;">2017</text></g><g class="tick" opacity="1" transform="translate(331.0013396829743,0)"><line stroke="#000" y2="6" x1="0.5" x2="0.5"></line><text fill="#000" y="9" x="0.5" dy="0.71em" style="font-size: 12px;">2018</text></g><g class="tick" opacity="1" transform="translate(366.12254676667027,0)"><line stroke="#000" y2="6" x1="0.5" x2="0.5"></line><text fill="#000" y="9" x="0.5" dy="0.71em" style="font-size: 12px;">2019</text></g><g class="tick" opacity="1" transform="translate(401.2437538503662,0)"><line stroke="#000" y2="6" x1="0.5" x2="0.5"></line><text fill="#000" y="9" x="0.5" dy="0.71em" style="font-size: 12px;">2020</text></g></g><g class="grid-lines" transform="translate(0,300)" fill="none" font-size="10" font-family="sans-serif" text-anchor="middle"><path class="domain" stroke="#000" d="M0.5,-300V0.5H410.5V-300"></path><g class="tick" opacity="1" transform="translate(14.718030959389028,0)"><line stroke="#000" y2="-300" x1="0.5" x2="0.5" style="stroke: #ccc; fill: none;"></line></g><g class="tick" opacity="1" transform="translate(49.83923804308499,0)"><line stroke="#000" y2="-300" x1="0.5" x2="0.5" style="stroke: #ccc; fill: none;"></line></g><g class="tick" opacity="1" transform="translate(84.96044512678094,0)"><line stroke="#000" y2="-300" x1="0.5" x2="0.5" style="stroke: #ccc; fill: none;"></line></g><g class="tick" opacity="1" transform="translate(120.08165221047692,0)"><line stroke="#000" y2="-300" x1="0.5" x2="0.5" style="stroke: #ccc; fill: none;"></line></g><g class="tick" opacity="1" transform="translate(155.29908177933368,0)"><line stroke="#000" y2="-300" x1="0.5" x2="0.5" style="stroke: #ccc; fill: none;"></line></g><g class="tick" opacity="1" transform="translate(190.42028886302964,0)"><line stroke="#000" y2="-300" x1="0.5" x2="0.5" style="stroke: #ccc; fill: none;"></line></g><g class="tick" opacity="1" transform="translate(225.54149594672563,0)"><line stroke="#000" y2="-300" x1="0.5" x2="0.5" style="stroke: #ccc; fill: none;"></line></g><g class="tick" opacity="1" transform="translate(260.6627030304216,0)"><line stroke="#000" y2="-300" x1="0.5" x2="0.5" style="stroke: #ccc; fill: none;"></line></g><g class="tick" opacity="1" transform="translate(295.88013259927834,0)"><line stroke="#000" y2="-300" x1="0.5" x2="0.5" style="stroke: #ccc; fill: none;"></line></g><g class="tick" opacity="1" transform="translate(331.0013396829743,0)"><line stroke="#000" y2="-300" x1="0.5" x2="0.5" style="stroke: #ccc; fill: none;"></line></g><g class="tick" opacity="1" transform="translate(366.12254676667027,0)"><line stroke="#000" y2="-300" x1="0.5" x2="0.5" style="stroke: #ccc; fill: none;"></line></g><g class="tick" opacity="1" transform="translate(401.2437538503662,0)"><line stroke="#000" y2="-300" x1="0.5" x2="0.5" style="stroke: #ccc; fill: none;"></line></g></g><text x="205" y="360" class="axis-label x-axis-label" style="text-anchor: middle; font-weight: bold;">Year</text><g fill="none" font-size="10" font-family="sans-serif" text-anchor="end"><path class="domain" stroke="#000" d="M-6,300.5H0.5V0.5H-6"></path><g class="tick" opacity="1" transform="translate(0,300)"><line stroke="#000" x2="-6" y1="0.5" y2="0.5"></line><text fill="#000" x="-9" y="0.5" dy="0.32em" style="font-size: 12px;">0.00%</text></g><g class="tick" opacity="1" transform="translate(0,275)"><line stroke="#000" x2="-6" y1="0.5" y2="0.5"></line><text fill="#000" x="-9" y="0.5" dy="0.32em" style="font-size: 12px;">0.05%</text></g><g class="tick" opacity="1" transform="translate(0,250)"><line stroke="#000" x2="-6" y1="0.5" y2="0.5"></line><text fill="#000" x="-9" y="0.5" dy="0.32em" style="font-size: 12px;">0.10%</text></g><g class="tick" opacity="1" transform="translate(0,225)"><line stroke="#000" x2="-6" y1="0.5" y2="0.5"></line><text fill="#000" x="-9" y="0.5" dy="0.32em" style="font-size: 12px;">0.15%</text></g><g class="tick" opacity="1" transform="translate(0,200)"><line stroke="#000" x2="-6" y1="0.5" y2="0.5"></line><text fill="#000" x="-9" y="0.5" dy="0.32em" style="font-size: 12px;">0.20%</text></g><g class="tick" opacity="1" transform="translate(0,175)"><line stroke="#000" x2="-6" y1="0.5" y2="0.5"></line><text fill="#000" x="-9" y="0.5" dy="0.32em" style="font-size: 12px;">0.25%</text></g><g class="tick" opacity="1" transform="translate(0,150)"><line stroke="#000" x2="-6" y1="0.5" y2="0.5"></line><text fill="#000" x="-9" y="0.5" dy="0.32em" style="font-size: 12px;">0.30%</text></g><g class="tick" opacity="1" transform="translate(0,125)"><line stroke="#000" x2="-6" y1="0.5" y2="0.5"></line><text fill="#000" x="-9" y="0.5" dy="0.32em" style="font-size: 12px;">0.35%</text></g><g class="tick" opacity="1" transform="translate(0,100)"><line stroke="#000" x2="-6" y1="0.5" y2="0.5"></line><text fill="#000" x="-9" y="0.5" dy="0.32em" style="font-size: 12px;">0.40%</text></g><g class="tick" opacity="1" transform="translate(0,75.00000000000003)"><line stroke="#000" x2="-6" y1="0.5" y2="0.5"></line><text fill="#000" x="-9" y="0.5" dy="0.32em" style="font-size: 12px;">0.45%</text></g><g class="tick" opacity="1" transform="translate(0,50)"><line stroke="#000" x2="-6" y1="0.5" y2="0.5"></line><text fill="#000" x="-9" y="0.5" dy="0.32em" style="font-size: 12px;">0.50%</text></g><g class="tick" opacity="1" transform="translate(0,25)"><line stroke="#000" x2="-6" y1="0.5" y2="0.5"></line><text fill="#000" x="-9" y="0.5" dy="0.32em" style="font-size: 12px;">0.55%</text></g><g class="tick" opacity="1" transform="translate(0,0)"><line stroke="#000" x2="-6" y1="0.5" y2="0.5"></line><text fill="#000" x="-9" y="0.5" dy="0.32em" style="font-size: 12px;">0.60%</text></g></g><g class="grid-lines" fill="none" font-size="10" font-family="sans-serif" text-anchor="end"><path class="domain" stroke="#000" d="M410,300.5H0.5V0.5H410"></path><g class="tick" opacity="1" transform="translate(0,300)"><line stroke="#000" x2="410" y1="0.5" y2="0.5" style="stroke: #ccc; fill: none;"></line></g><g class="tick" opacity="1" transform="translate(0,275)"><line stroke="#000" x2="410" y1="0.5" y2="0.5" style="stroke: #ccc; fill: none;"></line></g><g class="tick" opacity="1" transform="translate(0,250)"><line stroke="#000" x2="410" y1="0.5" y2="0.5" style="stroke: #ccc; fill: none;"></line></g><g class="tick" opacity="1" transform="translate(0,225)"><line stroke="#000" x2="410" y1="0.5" y2="0.5" style="stroke: #ccc; fill: none;"></line></g><g class="tick" opacity="1" transform="translate(0,200)"><line stroke="#000" x2="410" y1="0.5" y2="0.5" style="stroke: #ccc; fill: none;"></line></g><g class="tick" opacity="1" transform="translate(0,175)"><line stroke="#000" x2="410" y1="0.5" y2="0.5" style="stroke: #ccc; fill: none;"></line></g><g class="tick" opacity="1" transform="translate(0,150)"><line stroke="#000" x2="410" y1="0.5" y2="0.5" style="stroke: #ccc; fill: none;"></line></g><g class="tick" opacity="1" transform="translate(0,125)"><line stroke="#000" x2="410" y1="0.5" y2="0.5" style="stroke: #ccc; fill: none;"></line></g><g class="tick" opacity="1" transform="translate(0,100)"><line stroke="#000" x2="410" y1="0.5" y2="0.5" style="stroke: #ccc; fill: none;"></line></g><g class="tick" opacity="1" transform="translate(0,75.00000000000003)"><line stroke="#000" x2="410" y1="0.5" y2="0.5" style="stroke: #ccc; fill: none;"></line></g><g class="tick" opacity="1" transform="translate(0,50)"><line stroke="#000" x2="410" y1="0.5" y2="0.5" style="stroke: #ccc; fill: none;"></line></g><g class="tick" opacity="1" transform="translate(0,25)"><line stroke="#000" x2="410" y1="0.5" y2="0.5" style="stroke: #ccc; fill: none;"></line></g><g class="tick" opacity="1" transform="translate(0,0)"><line stroke="#000" x2="410" y1="0.5" y2="0.5" style="stroke: #ccc; fill: none;"></line></g></g><g class="lines"><path class="line" d="M2.9828970399851364,300L5.869571594809462,300L8.848459364579565,300L11.735133919403891,300L14.718030959389028,300L17.700927999374162,300L20.395157583876866,300L23.38206389407704,300L26.268738448901363,300L29.2516354888865,300L32.138310043710824,300L35.12120708369596,300L38.1041041236811,300L40.99077867850542,300L43.969666448275525,213.4675896795L46.85634100309985,285.3153201265L49.83923804308499,283.1921473715L52.82213508307012,292.13306361L55.51636466757282,292.2913856235L58.49926170755796,289.943684634L61.38994553259733,283.5433970305L64.37284257258246,286.4625825785L67.25951712740678,293.3844932525L70.24241416739191,289.7350052115L73.22531120737706,292.603428722L76.11198576220139,289.756843217L79.09087353197148,288.454988888L81.9775480867958,286.9951593095L84.96044512678094,290.585695278L87.94334216676609,290.3171145005L90.63757175126878,298.508961144L93.62046879125391,296.332889788L96.50714334607825,281.5184815185L99.49404965627842,282.83192454150003L102.38072421110274,287.060942959L105.36362125108788,281.339628099L108.34250902085797,287.250902244L111.2291835756823,280.2664035525L114.21208061566745,269.6847210995L117.09875517049177,274.9400005785L120.08165221047692,284.07533657L123.06454925046204,287.4995967615L125.85500132012557,282.432927422L128.8378983601107,273.3106409315L131.72858218515006,274.34772587049997L134.71147922513518,272.482323715L137.59815377995952,273.1871326465L140.58105081994466,274.476411951L143.5639478599298,250.692953644L146.44661314453907,266.1902052025L149.42951018452422,264.7560372235L152.31618473934856,258.12736691550003L155.29908177933368,267.8985977095L158.28197881931882,261.91356658300003L160.97620840382152,263.500712742L163.95910544380664,263.601421001L166.84978926884602,256.821848145L169.83268630883117,244.4033787585L172.71936086365548,243.4190722995L175.7022579036406,238.5973159095L178.68515494362575,228.5098065245L181.56782022823504,242.534655398L184.55071726822018,240.5402344415L187.4373918230445,227.56510086600002L190.42028886302964,219.88111732800002L193.40318590301476,245.532611353L196.09741548751748,238.758747893L199.08031252750263,212.307692308L201.97099635254196,220.77683967500002L204.9538933925271,211.654273725L207.84056794735145,172.14725032149997L210.8234649873366,176.3570198685L213.80636202732174,182.154882155L216.689027311931,189.35304755800001L219.67192435191615,198.64459637800002L222.55859890674049,187.13536039550002L225.54149594672563,158.11629041900002L228.52439298671072,185.710203936L231.21862257121344,176.23631738400002L234.2015196111986,196.7176826725L237.08819416602293,193.0492837545L240.07109120600802,186.8017214685L242.95776576083236,179.8878953695L245.94066280081748,175.822090946L248.92355984080262,179.7805571865L251.81023439562696,184.493602723L254.7931314356121,177.205927912L257.6798059904364,176.0518138335L260.6627030304216,162.24444542999998L263.6456000704067,155.4589578115L266.4360521400702,151.746648727L269.4189491800554,146.0163432075L272.3056237348797,145.87714737449997L275.29253004507984,150.28307135149998L278.17920459990415,147.09740861400002L281.16210163988933,140.5200817335L284.1409894096594,149.2412199145L287.02766396448374,147.07198806449998L290.01056100446885,162.7296693455L292.8972355592932,145.2194843545L295.88013259927834,139.676048798L298.8630296392635,139.942528736L301.55725922376615,135.65037990250002L304.5401562637513,156.3088851825L307.42683081857564,140.82275748950002L310.4137371287758,137.39837398400002L313.30041168360015,115.74820788550002L316.28330872358526,125.537854031L319.26219649335536,131.1230318385L322.14887104817967,116.85198444900001L325.13176808816485,104.6025628045L328.01844264298916,116.54170733950002L331.0013396829743,128.5552799325L333.98423672295945,107.95411945000001L336.67846630746214,121.44521601350004L339.66136334744726,105.96126664550002L342.5480379022716,109.08801193L345.53494421247177,78.63248421400002L348.4216187672961,80.0711608835L351.4045158072812,74.04469529449997L354.3834035770513,62.68469473099998L357.27007813187566,49.92478941049998L360.2529751718608,57.844886569500005L363.1396497266851,48.96700492200003L366.12254676667027,75.62334324599996L369.1054438066554,81.82566635800003L371.7996733911581,72.54315448400001L374.78257043114326,85.54943151L377.6732542561826,82.07890585200002L380.65615129616776,117.42107265150003L383.5428258509921,103.56311528499998L386.5257228909772,83.19628806750003L389.5086199309623,87.54971904800001L392.39128521557166,108.31836551450002L395.3741822555567,109.76008473049998L398.2608568103811,84.650511131L401.2437538503662,97.01901176599998L404.2266508903513,89.24286159400003L407.0171029600149,104.9349073375L410,93.55169239899999" data-legend="go" style="stroke: rgb(31, 119, 180); fill: none;"></path></g></g><g transform="translate(20, 150)"><text transform="rotate(-90)" x="-50" y="0" dy="1em" class="axis-label y-axis-label" style="text-anchor: middle; font-weight: bold;">% of Stack Overflow questions that month</text></g><g class="legend" transform="translate(530, 30)" style="font-size: 12px;"><text class="legend-title" style="font-weight: bold;">Tag</text><g class="legend-items" transform="translate(0,20)"><text y="0em" x="1em">go</text><circle cy="-0.25em" cx="0" r="0.4em" style="fill: rgb(31, 119, 180);"></circle></g><rect class="legend-box"></rect></g></svg>
        